<?xml version="1.0" encoding="utf-8"?>
<!-- Generator: Adobe Illustrator 20.1.0, SVG Export Plug-In . SVG Version: 6.00 Build 0)  -->
<!DOCTYPE svg PUBLIC "-//W3C//DTD SVG 1.1//EN" "http://www.w3.org/Graphics/SVG/1.1/DTD/svg11.dtd">
<svg version="1.1" id="Layer_1" xmlns="http://www.w3.org/2000/svg" xmlns:xlink="http://www.w3.org/1999/xlink" x="0px" y="0px"
	 viewBox="0 0 4000 4000" style="enable-background:new 0 0 4000 4000;" xml:space="preserve">
<style type="text/css">
	.st0{fill:#FFFFFF;}
</style>
<g>
	<title>Cover</title>
	<path class="st0" d="M2083.9,1993.5c0.1,0.2,0.2,0.5,0.3,0.8c0.1,0.3,0.3,0.7,0.3,1c0.1,0.4,0.1,0.7,0,1c-0.1,0.3-0.3,0.6-0.6,0.8
		c-0.4,0.3-1.2,0.4-2.2,0.3c-1-0.1-1.9-0.1-2.6-0.1h-3.9c-0.4,0-0.9,0-1.2,0c-0.4,0-0.7,0-1-0.1c-0.6-0.2-1.1-0.5-1.3-1
		c-0.3-0.4-0.5-0.9-0.6-1.4c-0.1-0.5-0.3-1-0.5-1.5c-0.3-0.9-0.6-1.8-0.9-2.7c-0.3-0.9-0.6-1.8-1-2.6c-0.2-0.5-0.3-1-0.5-1.4
		c-0.1-0.4-0.3-0.8-0.5-1.1s-0.4-0.6-0.8-0.9c-0.3-0.3-0.8-0.4-1.3-0.5c-0.3,0-0.5,0-0.8,0c-0.3,0-0.5,0-0.8,0h-13.2
		c-0.9,0-2,0-3.1,0c-1.1,0-1.9,0.2-2.6,0.6c-0.4,0.3-0.8,0.8-0.9,1.3c-0.2,0.6-0.4,1.1-0.6,1.7c-0.4,0.9-0.8,1.9-1.1,3
		c-0.3,1-0.7,2.1-1,3.1c-0.2,0.6-0.4,1.1-0.6,1.8c-0.2,0.6-0.5,1.1-1,1.4c-0.3,0.2-0.7,0.4-1.2,0.5c-0.5,0.1-1.1,0.1-1.8,0.1
		c-0.6,0-1.3,0-2,0c-0.7,0-1.3,0-1.8,0c-0.7,0-1.6,0-2.6,0c-1,0-1.8-0.1-2.2-0.4c-0.3-0.2-0.4-0.4-0.5-0.8c0-0.3,0-0.7,0.1-1
		c0.1-0.4,0.2-0.7,0.3-1c0.1-0.3,0.2-0.6,0.3-0.8c0.6-1.3,1.1-2.6,1.5-3.9c0.5-1.3,1-2.7,1.5-3.9c0.2-0.4,0.4-0.9,0.5-1.3
		c0.1-0.4,0.3-0.9,0.5-1.3c0.4-1.2,0.9-2.4,1.3-3.6c0.4-1.2,0.9-2.4,1.3-3.6c0.4-1.1,0.9-2.2,1.3-3.3c0.4-1.1,0.8-2.2,1.3-3.3
		c1.3-3.1,2.5-6.2,3.6-9.3c1.1-3.1,2.3-6.2,3.6-9.3c0.1-0.3,0.2-0.5,0.3-0.8c0.1-0.2,0.1-0.5,0.3-0.8c0.4-1.2,0.9-2.4,1.3-3.6
		c0.4-1.2,0.9-2.4,1.4-3.6c0.3-0.6,0.5-1.2,0.7-1.9c0.2-0.6,0.5-1.2,1-1.5c0.3-0.2,0.6-0.3,1.1-0.4c0.1-0.1,0.2-0.1,0.3,0
		c0.1,0,0.2,0,0.3,0h7.4c0.6,0,1.2,0,1.9,0c0.6,0,1.2,0.1,1.5,0.4c0.6,0.3,1,0.8,1.2,1.5c0.2,0.6,0.4,1.3,0.7,2
		c0.4,0.9,0.8,1.9,1.1,2.8s0.7,1.9,1.1,2.8c0.1,0.3,0.2,0.7,0.3,1c0.1,0.3,0.2,0.7,0.3,1c0.4,1.1,0.9,2.2,1.3,3.3
		c0.4,1.1,0.8,2.2,1.3,3.3c1.1,2.8,2.2,5.6,3.1,8.5c1,2.8,2.1,5.7,3.2,8.5c0.1,0.2,0.2,0.4,0.2,0.6c0,0.2,0.1,0.4,0.2,0.6
		c0.3,0.9,0.7,1.8,1,2.7c0.3,0.9,0.7,1.8,1,2.7c0.2,0.4,0.4,0.9,0.5,1.3c0.1,0.4,0.3,0.9,0.4,1.3c0.7,1.8,1.4,3.6,2,5.4
		c0.6,1.8,1.3,3.5,2,5.3c0.1,0.2,0.2,0.3,0.2,0.5C2083.7,1993.1,2083.8,1993.3,2083.9,1993.5z M2062.2,1974.3c0.7-0.3,1.1-0.8,1-1.4
		c-0.1-0.7-0.2-1.3-0.5-1.9c-0.1-0.2-0.2-0.4-0.2-0.6c0-0.2-0.1-0.4-0.2-0.6c-0.7-1.9-1.4-3.8-2-5.8c-0.6-2-1.3-3.9-2.1-5.9
		c-0.1-0.3-0.2-0.6-0.3-1c-0.1-0.4-0.3-0.8-0.4-1.2c-0.2-0.4-0.4-0.7-0.6-1c-0.2-0.3-0.5-0.4-0.8-0.4c-0.1,0.1-0.2,0.2-0.3,0.3
		c-0.1,0.1-0.2,0.1-0.3,0.3c-0.4,0.6-0.8,1.2-1,2c-0.2,0.8-0.4,1.5-0.7,2.3c-0.7,1.6-1.3,3.2-1.8,4.8c-0.5,1.6-1.1,3.2-1.7,4.9
		c-0.2,0.6-0.4,1.1-0.6,1.6c-0.2,0.5-0.3,1.1-0.5,1.7c-0.2,0.4-0.1,1,0.1,1.5c0.3,0.4,0.7,0.6,1.4,0.7c0.6,0.1,1.3,0.1,2,0.1h6.4
		c0.5,0,1.1,0,1.7,0C2061.2,1974.5,2061.7,1974.4,2062.2,1974.3z"/>
	<path class="st0" d="M2143.7,1993.5c0.1,0.2,0.2,0.5,0.3,0.8c0.1,0.3,0.3,0.7,0.3,1c0.1,0.4,0.1,0.7,0,1c-0.1,0.3-0.3,0.6-0.6,0.8
		c-0.4,0.3-1.2,0.4-2.2,0.3c-1-0.1-1.9-0.1-2.6-0.1h-3.9c-0.4,0-0.9,0-1.2,0c-0.4,0-0.7,0-1-0.1c-0.6-0.2-1.1-0.5-1.3-1
		c-0.3-0.4-0.5-0.9-0.6-1.4c-0.1-0.5-0.3-1-0.5-1.5c-0.3-0.9-0.6-1.8-0.9-2.7c-0.3-0.9-0.6-1.8-1-2.6c-0.2-0.5-0.3-1-0.5-1.4
		c-0.1-0.4-0.3-0.8-0.5-1.1s-0.4-0.6-0.8-0.9c-0.3-0.3-0.8-0.4-1.3-0.5c-0.3,0-0.5,0-0.8,0c-0.3,0-0.5,0-0.8,0h-13.2
		c-0.9,0-2,0-3.1,0c-1.1,0-1.9,0.2-2.6,0.6c-0.4,0.3-0.8,0.8-0.9,1.3c-0.2,0.6-0.4,1.1-0.6,1.7c-0.4,0.9-0.8,1.9-1.1,3
		c-0.3,1-0.7,2.1-1,3.1c-0.2,0.6-0.4,1.1-0.6,1.8c-0.2,0.6-0.5,1.1-1,1.4c-0.3,0.2-0.7,0.4-1.2,0.5c-0.5,0.1-1.1,0.1-1.8,0.1
		c-0.6,0-1.3,0-2,0c-0.7,0-1.3,0-1.8,0c-0.7,0-1.6,0-2.6,0c-1,0-1.8-0.1-2.2-0.4c-0.3-0.2-0.4-0.4-0.5-0.8c0-0.3,0-0.7,0.1-1
		c0.1-0.4,0.2-0.7,0.3-1c0.1-0.3,0.2-0.6,0.3-0.8c0.6-1.3,1.1-2.6,1.5-3.9c0.5-1.3,1-2.7,1.5-3.9c0.2-0.4,0.4-0.9,0.5-1.3
		c0.1-0.4,0.3-0.9,0.5-1.3c0.4-1.2,0.9-2.4,1.3-3.6c0.4-1.2,0.9-2.4,1.3-3.6c0.4-1.1,0.9-2.2,1.3-3.3c0.4-1.1,0.8-2.2,1.3-3.3
		c1.3-3.1,2.5-6.2,3.6-9.3c1.1-3.1,2.3-6.2,3.6-9.3c0.1-0.3,0.2-0.5,0.3-0.8c0.1-0.2,0.1-0.5,0.3-0.8c0.4-1.2,0.9-2.4,1.3-3.6
		c0.4-1.2,0.9-2.4,1.4-3.6c0.3-0.6,0.5-1.2,0.7-1.9c0.2-0.6,0.5-1.2,1-1.5c0.3-0.2,0.6-0.3,1.1-0.4c0.1-0.1,0.2-0.1,0.3,0
		c0.1,0,0.2,0,0.3,0h7.4c0.6,0,1.2,0,1.9,0c0.6,0,1.2,0.1,1.5,0.4c0.6,0.3,1,0.8,1.2,1.5c0.2,0.6,0.4,1.3,0.7,2
		c0.4,0.9,0.8,1.9,1.1,2.8s0.7,1.9,1.1,2.8c0.1,0.3,0.2,0.7,0.3,1c0.1,0.3,0.2,0.7,0.3,1c0.4,1.1,0.9,2.2,1.3,3.3
		c0.4,1.1,0.8,2.2,1.3,3.3c1.1,2.8,2.2,5.6,3.1,8.5c1,2.8,2.1,5.7,3.2,8.5c0.1,0.2,0.2,0.4,0.2,0.6c0,0.2,0.1,0.4,0.2,0.6
		c0.3,0.9,0.7,1.8,1,2.7c0.3,0.9,0.7,1.8,1,2.7c0.2,0.4,0.4,0.9,0.5,1.3c0.1,0.4,0.3,0.9,0.4,1.3c0.7,1.8,1.4,3.6,2,5.4
		c0.6,1.8,1.3,3.5,2,5.3c0.1,0.2,0.2,0.3,0.2,0.5C2143.5,1993.1,2143.6,1993.3,2143.7,1993.5z M2122,1974.3c0.7-0.3,1.1-0.8,1-1.4
		c-0.1-0.7-0.2-1.3-0.5-1.9c-0.1-0.2-0.2-0.4-0.2-0.6c0-0.2-0.1-0.4-0.2-0.6c-0.7-1.9-1.4-3.8-2-5.8c-0.6-2-1.3-3.9-2.1-5.9
		c-0.1-0.3-0.2-0.6-0.3-1c-0.1-0.4-0.3-0.8-0.4-1.2c-0.2-0.4-0.4-0.7-0.6-1c-0.2-0.3-0.5-0.4-0.8-0.4c-0.1,0.1-0.2,0.2-0.3,0.3
		c-0.1,0.1-0.2,0.1-0.3,0.3c-0.4,0.6-0.8,1.2-1,2c-0.2,0.8-0.4,1.5-0.7,2.3c-0.7,1.6-1.3,3.2-1.8,4.8c-0.5,1.6-1.1,3.2-1.7,4.9
		c-0.2,0.6-0.4,1.1-0.6,1.6c-0.2,0.5-0.3,1.1-0.5,1.7c-0.2,0.4-0.1,1,0.1,1.5c0.3,0.4,0.7,0.6,1.4,0.7c0.6,0.1,1.3,0.1,2,0.1h6.4
		c0.5,0,1.1,0,1.7,0C2121.1,1974.5,2121.6,1974.4,2122,1974.3z"/>
	<path class="st0" d="M2032,2005.9h6.8c0.6,0,1.2,0,1.9,0c0.6,0,1.2,0.1,1.5,0.4c0.5,0.3,0.8,0.7,1,1.3c0.2,0.6,0.4,1.2,0.6,1.8
		c0.4,1.1,0.7,2.1,1,3.2c0.3,1.1,0.7,2.1,1,3.3c1.1,3.5,2.2,6.9,3.3,10.4c1.1,3.5,2.2,6.9,3.3,10.4c0.3,0.9,0.6,1.9,0.9,2.8
		c0.3,0.9,0.6,1.9,0.9,2.8c0.2,0.5,0.3,1,0.5,1.5c0.2,0.5,0.4,1,0.7,1.3c0.1,0.1,0.1,0.2,0.2,0.2c0.1,0,0.2,0.1,0.3,0.2
		c0.6,0,1-0.3,1.2-0.8c0.2-0.5,0.4-1,0.5-1.5c0.4-1.2,0.8-2.4,1.2-3.6c0.3-1.2,0.7-2.5,1.2-3.8c1.2-3.7,2.4-7.4,3.6-11
		c1.1-3.7,2.3-7.3,3.6-11c0.3-0.9,0.6-1.8,0.8-2.6c0.3-0.9,0.6-1.7,0.8-2.6c0.2-0.4,0.4-0.9,0.5-1.3c0.1-0.4,0.4-0.8,0.9-1.1
		c0.4-0.3,0.9-0.4,1.4-0.4c0.5,0,1.1,0,1.6,0h5.6c0.6,0,1.1,0,1.7,0c0.6,0,1,0.1,1.3,0.3c0.6,0.3,0.8,0.8,0.6,1.5
		c-0.2,0.8-0.3,1.4-0.5,1.9c-0.5,1.3-1,2.6-1.4,4c-0.4,1.4-0.9,2.7-1.3,4.1c-0.2,0.3-0.3,0.7-0.4,1c-0.1,0.3-0.2,0.7-0.3,1
		c-0.4,1.2-0.9,2.4-1.2,3.6c-0.4,1.2-0.8,2.5-1.2,3.7c-1.5,4.5-3,9.1-4.5,13.6c-1.5,4.5-3,9.1-4.5,13.6c-0.5,1.3-0.9,2.6-1.3,3.9
		c-0.4,1.3-0.8,2.6-1.3,3.9c-0.3,0.8-0.6,1.5-0.8,2.1c-0.3,0.6-0.8,1.1-1.7,1.3c-0.4,0.1-0.9,0.2-1.5,0.1c-0.6,0-1.1,0-1.6,0h-6
		c-0.6,0-1.3,0-2,0c-0.7,0-1.3-0.1-1.7-0.4c-0.6-0.3-1-0.8-1.2-1.5c-0.2-0.7-0.4-1.4-0.6-2.1c-0.4-1.2-0.8-2.4-1.1-3.6
		c-0.4-1.2-0.7-2.4-1.1-3.6c-1.2-3.5-2.4-7.1-3.5-10.6c-1.1-3.6-2.3-7.1-3.5-10.7c-0.5-1.6-1-3.2-1.5-4.8c-0.5-1.6-1-3.2-1.5-4.7
		c-0.2-0.5-0.4-1-0.5-1.5c-0.1-0.5-0.3-1-0.5-1.5c-0.5-1.6-1-3.1-1.5-4.6c-0.5-1.5-1-3.1-1.5-4.6c-0.1-0.5-0.3-1-0.4-1.5
		c-0.2-0.5-0.3-1-0.5-1.5c-0.1-0.3-0.1-0.6-0.1-0.8c0-0.3,0-0.5,0.1-0.8c0.2-0.4,0.5-0.6,1.1-0.8c0.1-0.1,0.2-0.1,0.4,0
		C2031.8,2006,2031.9,2006,2032,2005.9z"/>
	<path class="st0" d="M2113,2004.7c10.8-0.2,18.3,3,22.4,9.6c0.6,0.9,1,1.8,1.3,2.8c0.3,0.9,0.6,2,0.9,3.1c0.1,0.4,0.2,1,0.1,1.5
		c0,0.6-0.2,1-0.4,1.3c-0.3,0.3-0.7,0.5-1.2,0.6c-0.5,0.1-1.1,0.1-1.7,0.1h-5.3c-0.5,0-1,0-1.5,0c-0.5,0-0.9-0.1-1.3-0.2
		c-0.7-0.3-1.1-0.7-1.3-1.3c-0.2-0.6-0.4-1.2-0.7-1.8c-0.2-0.6-0.5-1.1-0.9-1.8c-0.4-0.6-0.8-1.1-1.3-1.4c-0.8-0.6-1.5-1-2.3-1.4
		c-0.7-0.3-1.5-0.5-2.5-0.7c-1-0.2-2-0.3-3-0.4c-1-0.1-2.1,0-3.1,0.1c-1,0.1-1.9,0.3-2.7,0.7c-1.3,0.6-2.3,1.2-3,2
		c-0.7,0.8-1.2,1.9-1.5,3.4c-0.1,0.4-0.1,0.8-0.1,1.3c0.1,0.5,0.1,0.9,0.3,1.1c0.4,1.2,1.1,2,1.9,2.5c0.8,0.5,1.8,0.9,2.9,1.4
		c0.6,0.3,1.2,0.5,1.9,0.6c0.6,0.1,1.3,0.3,2,0.5c1.5,0.5,3.1,0.9,4.6,1.3c1.6,0.4,3.2,0.8,4.7,1.2c0.3,0.1,0.6,0.2,0.8,0.2
		c0.3,0,0.6,0.1,0.8,0.2c1.1,0.4,2.3,0.8,3.5,1.1c1.2,0.3,2.3,0.8,3.2,1.4c1.5,0.9,2.8,1.9,3.9,2.8c1.1,0.9,2.1,2.2,3.1,3.7
		c0.3,0.4,0.5,0.9,0.7,1.5c0.2,0.6,0.4,1.1,0.6,1.7c0.1,0.2,0.1,0.3,0.1,0.5c0,0.1,0,0.3,0.1,0.4c0.2,0.9,0.3,2,0.3,3.3
		c0.1,0.3,0.1,0.6,0,0.8v1.5c-0.1,0.6-0.2,1.2-0.3,1.8c-0.1,0.6-0.2,1.1-0.4,1.7c-0.3,1-0.7,1.9-1.1,2.8c-0.4,0.8-0.9,1.6-1.4,2.4
		c-0.2,0.3-0.4,0.5-0.7,0.7c-0.2,0.2-0.4,0.4-0.6,0.7c-0.3,0.3-0.6,0.7-0.9,1c-0.3,0.3-0.7,0.6-1.1,0.9c-0.3,0.2-0.6,0.4-0.9,0.7
		c-0.3,0.2-0.6,0.4-1,0.7c-0.9,0.6-1.9,1.1-3,1.5c-1,0.4-2.1,0.8-3.2,1.2c-0.8,0.3-1.6,0.5-2.4,0.5c-0.8,0.1-1.7,0.2-2.5,0.4
		c-0.4,0.1-0.8,0.2-1.1,0.1c-0.4,0-0.7,0-1,0.1h-0.7c-0.1,0-0.3,0-0.5,0c-0.2,0-0.3,0-0.5,0c-0.3,0.1-0.8,0.1-1.4,0.1
		s-1.1,0-1.4-0.1h-0.8c-0.4-0.1-0.8-0.2-1.2-0.1c-0.4,0-0.8,0-1.1-0.1c-0.3,0-0.5,0-0.8,0c-0.2,0-0.5-0.1-0.8-0.1
		c-0.7-0.2-1.4-0.3-2.1-0.4c-0.7-0.1-1.4-0.3-2-0.5c-2.7-0.9-5.1-2-7.2-3.4c-2.1-1.4-3.8-3.2-5.2-5.4c-0.9-1.3-1.6-2.9-2.1-4.8
		c-0.1-0.3-0.2-0.7-0.2-1c0-0.3-0.1-0.7-0.2-1.1c-0.1-0.4-0.2-1-0.3-1.6c-0.1-0.6,0.1-1.1,0.3-1.5c0.3-0.4,0.7-0.7,1.2-0.8
		c0.5-0.1,1.1-0.1,1.8-0.1h5.3c0.4,0,0.9,0,1.4,0c0.5,0,0.9,0.1,1.3,0.3c0.6,0.3,1,0.7,1.1,1.4c0.1,0.6,0.3,1.3,0.6,2
		c0.2,0.7,0.5,1.3,0.8,1.8c0.3,0.6,0.7,1.1,1.1,1.6c0.3,0.3,0.6,0.6,0.9,0.9c0.3,0.3,0.7,0.5,1,0.8c1.2,0.8,2.7,1.4,4.5,1.9
		c0.4,0.1,0.8,0.2,1.1,0.2c0.4,0,0.8,0.1,1.2,0.2h0.4c0.4,0.1,1.1,0.2,1.8,0.2c0.8,0,1.4-0.1,1.8-0.2c0.2-0.1,0.4-0.1,0.8-0.1
		c0.3-0.1,0.6-0.1,0.9-0.1c0.3,0,0.6-0.1,0.9-0.2c1.9-0.5,3.4-1.2,4.5-2c1.1-0.8,1.9-2.2,2.3-4.2c0.1-0.4,0.1-0.8,0-1.3
		s-0.2-0.9-0.3-1.2c-0.6-1.5-1.5-2.7-2.8-3.5c-0.2-0.1-0.5-0.3-0.9-0.5c-0.8-0.5-1.8-0.9-2.8-1.2c-1-0.3-2.1-0.6-3.1-1
		c-0.4-0.1-0.8-0.2-1.1-0.3c-0.4-0.1-0.8-0.2-1.2-0.3c-0.9-0.3-1.8-0.5-2.7-0.7c-0.9-0.2-1.8-0.4-2.6-0.7c-0.3-0.1-0.5-0.2-0.7-0.2
		s-0.4-0.1-0.6-0.2c-0.4-0.1-0.9-0.2-1.2-0.3c-0.4-0.1-0.8-0.2-1.2-0.3c-1.3-0.4-2.5-0.9-3.7-1.4c-1.2-0.5-2.3-1-3.3-1.6
		c-1.3-0.8-2.5-1.8-3.5-2.9c-1.1-1.1-1.9-2.4-2.5-3.9c-0.2-0.5-0.4-1-0.5-1.5c-0.1-0.5-0.3-1.1-0.4-1.7c-0.1-0.5-0.2-1.2-0.3-2.2
		c-0.1-0.9,0-1.7,0.1-2.3c0.1-0.2,0.1-0.6,0.1-1c0.2-0.6,0.3-1.2,0.4-1.8c0.1-0.6,0.3-1.1,0.5-1.7c0.8-2,1.9-3.6,3.2-5
		c1.3-1.4,2.8-2.6,4.6-3.7c1.1-0.7,2.3-1.2,3.6-1.6c1.3-0.4,2.7-0.8,4.1-1.1c0.6-0.1,1.1-0.2,1.6-0.2c0.5,0,1.1-0.1,1.6-0.2
		c0.2-0.1,0.4-0.1,0.8,0C2112.7,2004.8,2112.9,2004.8,2113,2004.7z"/>
	<g id="XMLID_1_">
		<g>
			<path class="st0" d="M1921.5,1925.7c43.3,0,78.3,35.1,78.3,78.3c0,43.3-35.1,78.4-78.3,78.4c-43.3,0-78.3-35.1-78.3-78.4
				C1843.2,1960.7,1878.3,1925.7,1921.5,1925.7z M1974.1,2042.6l0.5-2.6h-4.9l1.7-8.9h-2.7l-2.2,11.5H1974.1z M1974.1,2021.5
				l-9.8-59.9h-15.8l-35,59.9h16.3l6-10.7h21.1l1.4,10.7H1974.1z M1965.7,2042.6l-1.7-11.5h-2.8l-6.1,11.5h2.9l1.1-2h3.7l0.2,2
				H1965.7z M1954.3,2042.6l2.2-11.5h-2.7l-2.2,11.5H1954.3z M1952.1,2033.7l0.5-2.6h-8.9l-0.5,2.6h3.1l-1.7,8.9h2.7l1.7-8.9H1952.1
				z M1940.6,2042.6l2.2-11.5h-2.6l-1.3,7.5h0l-2.4-7.5h-2.8l-2.2,11.5h2.6l1.3-7.5h0l2.4,7.5H1940.6z M1931.4,2033.7l0.5-2.6h-8.3
				l-2.2,11.5h8.4l0.5-2.6h-5.7l0.4-2.2h5.2l0.4-2.3h-5.2l0.3-1.8H1931.4z M1919.5,2042.6l2.2-11.5h-2.7l-2.2,11.5H1919.5z
				 M1914.4,2037.3c1.6-0.3,2.4-1.5,2.4-3.2c0-2.4-1.4-3-3.4-3h-5.1l-2.2,11.5h2.7l0.8-4.2h1.8c1,0,1.4,0.5,1.4,1.5
				c0,0.8-0.1,1.4-0.1,2c0,0.2,0,0.4,0.1,0.7h2.7c-0.2-0.3-0.2-0.8-0.2-1.2c0-0.7,0.1-1.3,0.1-2.1
				C1915.5,2038.1,1915.2,2037.5,1914.4,2037.3L1914.4,2037.3z M1913.1,2021.5l2.9-13.4h-28l9.7-46.4h-15.6l-12.5,59.9H1913.1z
				 M1906.2,2033.7l0.5-2.6h-8.3l-2.2,11.5h8.4l0.5-2.6h-5.7l0.4-2.2h5.2l0.4-2.3h-5.2l0.3-1.8H1906.2z M1896.4,2034.5
				c0-2-1.1-3.4-3-3.4h-5.1l-2.2,11.5h2.7l0.7-3.7h2.4C1894.4,2038.9,1896.4,2037.4,1896.4,2034.5z M1882.8,2036.6l4.3-5.5h-3.3
				l-2.4,3.5l-1.2-3.5h-3h-0.9h-8.3l-2.2,11.5h8.4h0.6h3.4l2.7-3.8l1.4,3.8h3.1L1882.8,2036.6z"/>
			<polygon class="st0" points="1962.1,2034.2 1962.5,2038.3 1960.1,2038.3 1962.1,2034.2 			"/>
			<polygon class="st0" points="1953.4,1977.7 1955.6,1999.2 1942,1999.2 1953.2,1977.7 			"/>
			<path class="st0" d="M1914,2034.6c0,1.2-0.8,1.6-1.8,1.6h-2.2l0.5-2.8h2C1913.3,2033.4,1914,2033.6,1914,2034.6z"/>
			<path class="st0" d="M1892,2033.6c0.8,0,1.6,0.1,1.6,1.2c0,1-0.5,1.6-1.8,1.6h-1.9l0.5-2.8H1892z"/>
			<polygon class="st0" points="1877.2,2031.1 1879.7,2036.5 1874.8,2042.6 1874.2,2042.6 1874.7,2040 1869,2040 1869.4,2037.8 
				1874.6,2037.8 1875,2035.5 1869.8,2035.5 1870.2,2033.7 1875.8,2033.7 1876.3,2031.1 			"/>
		</g>
		<g>
		</g>
	</g>
</g>
</svg>
