<svg id="Layer_1" data-name="Layer 1" xmlns="http://www.w3.org/2000/svg" viewBox="0 0 1098 415.78"><defs><style>.cls-1,.cls-2{fill:none;stroke:#000;stroke-miterlimit:10;}.cls-2{stroke-width:0.5px;stroke-dasharray:2 2;}.cls-3{font-size:8px;font-family:OpenSans-Bold, Open Sans;letter-spacing:0.2em;}.cls-4{font-weight:700;}.cls-5{font-size:9px;fill:#505050;font-family:OpenSans-Light, Open Sans;letter-spacing:0.1em;}</style></defs><title>schedule</title><line class="cls-1" x1="41" y1="185.28" x2="939.5" y2="185.28"/><circle cx="41" cy="185.78" r="3.5"/><circle cx="142" cy="185.78" r="3.5"/><circle cx="242" cy="185.78" r="3.5"/><circle cx="341" cy="185.78" r="3.5"/><circle cx="441" cy="185.78" r="3.5"/><circle cx="541" cy="185.78" r="3.5"/><circle cx="641" cy="185.78" r="3.5"/><circle cx="741" cy="185.78" r="3.5"/><circle cx="842" cy="185.78" r="3.5"/><circle cx="940" cy="185.78" r="3.5"/><line class="cls-2" x1="41" y1="185.78" x2="41" y2="295.78"/><line class="cls-2" x1="142" y1="75.78" x2="142" y2="185.78"/><line class="cls-2" x1="242" y1="185.78" x2="242" y2="295.78"/><line class="cls-2" x1="341" y1="75.78" x2="341" y2="185.78"/><line class="cls-2" x1="441" y1="185.78" x2="441" y2="295.78"/><line class="cls-2" x1="541" y1="75.78" x2="541" y2="185.78"/><line class="cls-2" x1="641" y1="185.78" x2="641" y2="295.78"/><line class="cls-2" x1="741" y1="75.78" x2="741" y2="185.78"/><line class="cls-2" x1="842" y1="185.78" x2="842" y2="295.78"/><line class="cls-2" x1="940" y1="75.78" x2="940" y2="185.78"/><text class="cls-3" transform="translate(0 317.86)"><tspan class="cls-4">INTRODUCTION</tspan><tspan class="cls-5"><tspan x="0" y="20.4">Meet &amp; Greet</tspan><tspan x="0" y="31.2">Present 2017 projects</tspan><tspan x="0" y="42">Guest Speaker : Coachella</tspan><tspan x="0" y="52.8">Site Analysis</tspan><tspan x="0" y="63.6">Setup softwares</tspan></tspan></text><text class="cls-3" transform="translate(113 6.86)"><tspan class="cls-4">WORKFLOW</tspan><tspan class="cls-5"><tspan x="0" y="20.4">Houdini Crash Course</tspan><tspan x="0" y="31.2">Guest Speaker: TBA</tspan><tspan x="0" y="42">Unreal Engine Crash Course</tspan><tspan x="0" y="52.8">Touchdesigner Crash Course</tspan></tspan></text><text class="cls-3" transform="translate(325 6.86)"><tspan class="cls-4">SOUND</tspan><tspan class="cls-5"><tspan x="0" y="20.4">Music studio visit</tspan><tspan x="0" y="31.2">Guest Speaker: WNL</tspan><tspan x="0" y="42">Design Sound Assets</tspan></tspan></text><text class="cls-3" transform="translate(188 317.86)"><tspan class="cls-4">CONCEPT/PROGRAM</tspan><tspan class="cls-5"><tspan x="0" y="20.4">Group Charettes</tspan><tspan x="0" y="31.2">Concept Design Narrative</tspan><tspan x="0" y="42">Lecture : Phantasm Team</tspan><tspan x="0" y="52.8">Schematic Design</tspan><tspan x="0" y="63.6">Idea/Experience Exchange</tspan></tspan></text><text class="cls-3" transform="translate(416 317.86)"><tspan class="cls-4">SIMULATE</tspan><tspan class="cls-5"><tspan x="0" y="20.4">Sound Data to Houdini Simulation</tspan><tspan x="0" y="31.2">Guest Tutorial : Houdini FX</tspan><tspan x="0" y="42">Houdini Form Iterations</tspan></tspan></text><text class="cls-3" transform="translate(516 6.86)"><tspan class="cls-4">SIMULATE</tspan><tspan class="cls-5"><tspan x="0" y="20.4">Export Design into VR</tspan><tspan x="0" y="31.2">Unreal Engine Exploration</tspan><tspan x="0" y="42">Intro to touchdesigner</tspan></tspan></text><text class="cls-3" transform="translate(612 317.86)"><tspan class="cls-4">INTERACTITY</tspan><tspan class="cls-5"><tspan x="0" y="20.4">Touchdesigner: Audio Reactivity</tspan><tspan x="0" y="31.2">Leap Motion: Gesture Control</tspan></tspan></text><text class="cls-3" transform="translate(710 6.86)"><tspan class="cls-4">INTERACTIVITY</tspan><tspan class="cls-5"><tspan x="0" y="20.4">Refine Spatial Design</tspan><tspan x="0" y="31.2">Refine Interactivity</tspan><tspan x="0" y="42">Develop Pitch Deck</tspan></tspan></text><text class="cls-3" transform="translate(831 317.86)"><tspan class="cls-4">TEST</tspan><tspan class="cls-5"><tspan x="0" y="20.4">Mock-up Experience</tspan><tspan x="0" y="31.2">Document Work</tspan><tspan x="0" y="42">Refine Pitch Deck</tspan><tspan x="0" y="52.8">Submit Final Works</tspan></tspan></text><text class="cls-3" transform="translate(904 6.86)"><tspan class="cls-4">PRESENTATION</tspan><tspan class="cls-5"><tspan x="0" y="20.4">Setup Gallery Space/Experience </tspan><tspan x="0" y="31.2">Stations</tspan><tspan x="0" y="42">Final Jury Reviews :TBA</tspan><tspan x="0" y="52.8">Closing Event : TBA</tspan></tspan></text></svg>