<svg xmlns="http://www.w3.org/2000/svg" viewBox="0 0 681.95 606.78"><defs><style>.cls-1,.cls-2{fill:none;stroke:#000;stroke-miterlimit:10;stroke-width:0.5px;}.cls-1{stroke-dasharray:1.99 1.99;}.cls-2{stroke-dasharray:2 2;}.cls-3{fill:#fff;}.cls-4,.cls-5{font-size:8px;font-family:OpenSans-Bold, Open Sans;font-weight:700;}.cls-4{letter-spacing:0.2em;}.cls-5{letter-spacing:0.2em;}</style></defs><title>Asset 6</title><g id="Layer_2" data-name="Layer 2"><g id="Layer_1-2" data-name="Layer 1"><circle class="cls-1" cx="259.96" cy="380.95" r="100.28"/><circle class="cls-1" cx="258.87" cy="180.39" r="100.28" transform="translate(-51.73 235.88) rotate(-45)"/><circle class="cls-1" cx="361.42" cy="281.86" r="100.28" transform="translate(-93.45 338.11) rotate(-45)"/><line class="cls-2" x1="186.82" y1="449.68" x2="75.89" y2="560.62"/><circle class="cls-3" cx="75.96" cy="560.54" r="1.88" transform="translate(-489.59 549.06) rotate(-81.12)"/><path d="M74.45,559a2.13,2.13,0,1,1,0,3,2.14,2.14,0,0,1,0-3Zm2.66,2.65a1.63,1.63,0,1,0-2.3,0,1.62,1.62,0,0,0,2.3,0C77.75,561.06,76.48,562.33,77.11,561.69Z"/><line class="cls-2" x1="513.74" y1="123.83" x2="429" y2="207.5"/><path class="cls-3" d="M512.35,122.57a1.88,1.88,0,1,1,0,2.66A1.87,1.87,0,0,1,512.35,122.57Z"/><path d="M512.17,122.39a2.13,2.13,0,1,0,3,0,2.13,2.13,0,0,0-3,0C511.33,123.22,513,121.57,512.17,122.39Zm2.64,2.68a1.63,1.63,0,1,1,0-2.31,1.63,1.63,0,0,1,0,2.31Z"/><line class="cls-2" x1="110.24" y1="20.76" x2="193.91" y2="105.5"/><path class="cls-3" d="M109,22.16a1.88,1.88,0,1,1,2.66,0A1.89,1.89,0,0,1,109,22.16Z"/><path d="M108.8,22.33a2.13,2.13,0,1,0,0-3,2.12,2.12,0,0,0,0,3C109.62,23.17,108,21.5,108.8,22.33Zm2.67-2.64a1.63,1.63,0,1,1-2.3,0,1.63,1.63,0,0,1,2.3,0C112.11,20.33,110.84,19.05,111.47,19.69Z"/></g><g id="Layer_5" data-name="Layer 5"><text class="cls-4" transform="translate(0 582.31)">3D SPACE/SOUND DESIGN</text><text class="cls-5" transform="translate(423.09 109.4)">AUDIO/GESTURE INTERACTIVITY DESIGN</text><text class="cls-4" transform="translate(43.36 6.86)">VR EXPERIENCE DESIGN</text></g></g></svg>